<svg xmlns="http://www.w3.org/2000/svg" viewBox="0 0 248.16 248.38"><path d="m169.17 37.94-22.24 22.24a1.83 1.83 0 0 1-2.58 0l-15.7-15.7a6 6 0 0 0-8.54 0l-75.26 75.3a6 6 0 0 0 0 8.54L67.7 151.2a1.83 1.83 0 0 0 2.6 0L97 124.44a3.6 3.6 0 0 1 5.07 0l21.76 21.77a3.57 3.57 0 0 1 0 5.06l-28 28v.05L71.25 204a1.83 1.83 0 0 1-2.58 0l-58.4-58.4a35.1 35.1 0 0 1 0-49.6L96.53 9.73a33.25 33.25 0 0 1 47 0l25.6 25.62a1.8 1.8 0 0 1 .04 2.58z" style="fill:#344555"/><path d="m78.5 210.17 22.38-22.12a1.83 1.83 0 0 1 2.58 0l15.6 15.78a6 6 0 0 0 8.55 0L203.33 129a6 6 0 0 0 .05-8.56l-22.75-23a1.82 1.82 0 0 0-2.57 0l-26.9 26.6a3.58 3.58 0 0 1-5.06 0l-21.66-21.9a3.58 3.58 0 0 1 0-5.07l28.2-27.87 24.76-24.5a1.82 1.82 0 0 1 2.58 0L238 103.4a35.08 35.08 0 0 1-.3 49.62L151 238.78a33.26 33.26 0 0 1-47-.27l-25.5-25.76a1.82 1.82 0 0 1 0-2.57z" style="fill:#29648a"/></svg>